HIERARCHY
ROOT Hips
{
	OFFSET 0.000000 97.167313 0.000000
	CHANNELS 6 Xposition Yposition Zposition Xrotation Yrotation Zrotation
	JOINT Spine
	{
		OFFSET 0.000000 13.784798 0.064400
		CHANNELS 3 Xrotation Yrotation Zrotation
		JOINT Spine1
		{
			OFFSET 0.000000 12.037903 0.404700
			CHANNELS 3 Xrotation Yrotation Zrotation
			JOINT Spine2
			{
				OFFSET 0.000000 17.795601 0.420200
				CHANNELS 3 Xrotation Yrotation Zrotation
				JOINT Neck
				{
					OFFSET 0.000000 39.131302 11.954600
					CHANNELS 3 Xrotation Yrotation Zrotation
					JOINT Head
					{
						OFFSET 0.000000 14.456192 15.627699
						CHANNELS 3 Xrotation Yrotation Zrotation
						JOINT HeadTop_End
						{
							OFFSET 0.000000 15.703506 7.603401
							CHANNELS 3 Xrotation Yrotation Zrotation
							End Site
							{
								OFFSET 0.000000 17.447403 0.000000
							}
						}
					}
				}
				JOINT LeftShoulder
				{
					OFFSET 17.399500 24.608795 1.168800
					CHANNELS 3 Xrotation Yrotation Zrotation
					JOINT LeftArm
					{
						OFFSET 18.980635 5.765305 1.818600
						CHANNELS 3 Xrotation Yrotation Zrotation
						JOINT LeftForeArm
						{
							OFFSET 49.290169 0.000000 0.000000
							CHANNELS 3 Xrotation Yrotation Zrotation
							JOINT LeftHand
							{
								OFFSET 31.562012 0.000000 0.000000
								CHANNELS 3 Xrotation Yrotation Zrotation
								JOINT LeftHandThumb1
								{
									OFFSET 6.133995 -4.388519 7.076070
									CHANNELS 3 Xrotation Yrotation Zrotation
									JOINT LeftHandThumb2
									{
										OFFSET 6.037666 -3.485840 3.485847
										CHANNELS 3 Xrotation Yrotation Zrotation
										JOINT LeftHandThumb3
										{
											OFFSET 6.496506 -3.750763 3.750761
											CHANNELS 3 Xrotation Yrotation Zrotation
											JOINT LeftHandThumb4
											{
												OFFSET 5.616882 -3.242905 3.242910
												CHANNELS 3 Xrotation Yrotation Zrotation
												End Site
												{
													OFFSET -1.254608 7.132141 0.375429
												}
											}
										}
									}
								}
								JOINT LeftHandPinky1
								{
									OFFSET 18.920792 -0.453171 -11.426712
									CHANNELS 3 Xrotation Yrotation Zrotation
									JOINT LeftHandPinky2
									{
										OFFSET 4.919586 0.000000 0.000000
										CHANNELS 3 Xrotation Yrotation Zrotation
										JOINT LeftHandPinky3
										{
											OFFSET 5.233047 0.000000 0.000000
											CHANNELS 3 Xrotation Yrotation Zrotation
											JOINT LeftHandPinky4
											{
												OFFSET 5.571716 0.000000 0.000000
												CHANNELS 3 Xrotation Yrotation Zrotation
												End Site
												{
													OFFSET -3.459808 4.342407 -0.466164
												}
											}
										}
									}
								}
								JOINT LeftHandRing1
								{
									OFFSET 22.726120 -0.094986 -6.500475
									CHANNELS 3 Xrotation Yrotation Zrotation
									JOINT LeftHandRing2
									{
										OFFSET 6.408615 0.000000 0.000000
										CHANNELS 3 Xrotation Yrotation Zrotation
										JOINT LeftHandRing3
										{
											OFFSET 6.150223 0.000000 0.000000
											CHANNELS 3 Xrotation Yrotation Zrotation
											JOINT LeftHandRing4
											{
												OFFSET 6.145386 0.000000 0.000000
												CHANNELS 3 Xrotation Yrotation Zrotation
												End Site
												{
													OFFSET -3.671402 4.923981 -0.202372
												}
											}
										}
									}
								}
								JOINT LeftHandMiddle1
								{
									OFFSET 23.373947 0.000000 0.000001
									CHANNELS 3 Xrotation Yrotation Zrotation
									JOINT LeftHandMiddle2
									{
										OFFSET 6.996567 0.000000 0.000000
										CHANNELS 3 Xrotation Yrotation Zrotation
										JOINT LeftHandMiddle3
										{
											OFFSET 7.015945 0.000000 0.000000
											CHANNELS 3 Xrotation Yrotation Zrotation
											JOINT LeftHandMiddle4
											{
												OFFSET 7.721573 0.000000 0.000000
												CHANNELS 3 Xrotation Yrotation Zrotation
												End Site
												{
													OFFSET -4.651108 6.158463 0.251582
												}
											}
										}
									}
								}
								JOINT LeftHandIndex1
								{
									OFFSET 21.310577 -0.490082 6.209344
									CHANNELS 3 Xrotation Yrotation Zrotation
									JOINT LeftHandIndex2
									{
										OFFSET 7.536453 0.000000 0.000000
										CHANNELS 3 Xrotation Yrotation Zrotation
										JOINT LeftHandIndex3
										{
											OFFSET 7.512344 0.000000 0.000000
											CHANNELS 3 Xrotation Yrotation Zrotation
											JOINT LeftHandIndex4
											{
												OFFSET 10.212402 0.000000 0.000001
												CHANNELS 3 Xrotation Yrotation Zrotation
												End Site
												{
													OFFSET -5.180801 8.690506 1.388433
												}
											}
										}
									}
								}
							}
						}
					}
				}
				JOINT RightShoulder
				{
					OFFSET -17.399500 24.608795 1.168800
					CHANNELS 3 Xrotation Yrotation Zrotation
					JOINT RightArm
					{
						OFFSET -18.980635 5.765305 1.818600
						CHANNELS 3 Xrotation Yrotation Zrotation
						JOINT RightForeArm
						{
							OFFSET -49.290169 0.000000 0.000000
							CHANNELS 3 Xrotation Yrotation Zrotation
							JOINT RightHand
							{
								OFFSET -31.562012 0.000000 0.000000
								CHANNELS 3 Xrotation Yrotation Zrotation
								JOINT RightHandThumb1
								{
									OFFSET -6.133995 -4.388519 7.076070
									CHANNELS 3 Xrotation Yrotation Zrotation
									JOINT RightHandThumb2
									{
										OFFSET -6.037666 -3.485840 3.485847
										CHANNELS 3 Xrotation Yrotation Zrotation
										JOINT RightHandThumb3
										{
											OFFSET -6.496506 -3.750763 3.750761
											CHANNELS 3 Xrotation Yrotation Zrotation
											JOINT RightHandThumb4
											{
												OFFSET -5.616882 -3.242905 3.242910
												CHANNELS 3 Xrotation Yrotation Zrotation
												End Site
												{
													OFFSET 1.254608 7.132141 0.375429
												}
											}
										}
									}
								}
								JOINT RightHandIndex1
								{
									OFFSET -21.310577 -0.490082 6.209344
									CHANNELS 3 Xrotation Yrotation Zrotation
									JOINT RightHandIndex2
									{
										OFFSET -7.536453 0.000000 0.000000
										CHANNELS 3 Xrotation Yrotation Zrotation
										JOINT RightHandIndex3
										{
											OFFSET -7.512344 0.000000 0.000000
											CHANNELS 3 Xrotation Yrotation Zrotation
											JOINT RightHandIndex4
											{
												OFFSET -10.212402 0.000000 0.000001
												CHANNELS 3 Xrotation Yrotation Zrotation
												End Site
												{
													OFFSET 5.180801 8.690506 1.388433
												}
											}
										}
									}
								}
								JOINT RightHandMiddle1
								{
									OFFSET -23.373947 0.000000 0.000001
									CHANNELS 3 Xrotation Yrotation Zrotation
									JOINT RightHandMiddle2
									{
										OFFSET -6.996567 0.000000 0.000000
										CHANNELS 3 Xrotation Yrotation Zrotation
										JOINT RightHandMiddle3
										{
											OFFSET -7.015945 0.000000 0.000000
											CHANNELS 3 Xrotation Yrotation Zrotation
											JOINT RightHandMiddle4
											{
												OFFSET -7.721573 0.000000 0.000000
												CHANNELS 3 Xrotation Yrotation Zrotation
												End Site
												{
													OFFSET 4.651108 6.158463 0.251582
												}
											}
										}
									}
								}
								JOINT RightHandRing1
								{
									OFFSET -22.726120 -0.094986 -6.500475
									CHANNELS 3 Xrotation Yrotation Zrotation
									JOINT RightHandRing2
									{
										OFFSET -6.408615 0.000000 0.000000
										CHANNELS 3 Xrotation Yrotation Zrotation
										JOINT RightHandRing3
										{
											OFFSET -6.150223 0.000000 0.000000
											CHANNELS 3 Xrotation Yrotation Zrotation
											JOINT RightHandRing4
											{
												OFFSET -6.145386 0.000000 0.000000
												CHANNELS 3 Xrotation Yrotation Zrotation
												End Site
												{
													OFFSET 3.671402 4.923981 -0.202372
												}
											}
										}
									}
								}
								JOINT RightHandPinky1
								{
									OFFSET -18.920792 -0.453171 -11.426712
									CHANNELS 3 Xrotation Yrotation Zrotation
									JOINT RightHandPinky2
									{
										OFFSET -4.919586 0.000000 0.000000
										CHANNELS 3 Xrotation Yrotation Zrotation
										JOINT RightHandPinky3
										{
											OFFSET -5.233047 0.000000 0.000000
											CHANNELS 3 Xrotation Yrotation Zrotation
											JOINT RightHandPinky4
											{
												OFFSET -5.571716 0.000000 0.000000
												CHANNELS 3 Xrotation Yrotation Zrotation
												End Site
												{
													OFFSET 3.459808 4.342407 -0.466164
												}
											}
										}
									}
								}
							}
						}
					}
				}
			}
		}
	}
	JOINT LeftUpLeg
	{
		OFFSET 19.899099 -7.885101 -3.429500
		CHANNELS 3 Xrotation Yrotation Zrotation
		JOINT LeftLeg
		{
			OFFSET 1.745560 -36.997807 10.304700
			CHANNELS 3 Xrotation Yrotation Zrotation
			JOINT LeftFoot
			{
				OFFSET -1.745558 -29.803308 -13.615400
				CHANNELS 3 Xrotation Yrotation Zrotation
				JOINT LeftToeBase
				{
					OFFSET 1.181900 -18.539904 15.226099
					CHANNELS 3 Xrotation Yrotation Zrotation
					JOINT LeftToe_End
					{
						OFFSET -0.863701 1.402801 16.534700
						CHANNELS 3 Xrotation Yrotation Zrotation
						End Site
						{
							OFFSET 0.000000 16.616566 0.000000
						}
					}
				}
			}
		}
	}
	JOINT RightUpLeg
	{
		OFFSET -19.899099 -7.885101 -3.429500
		CHANNELS 3 Xrotation Yrotation Zrotation
		JOINT RightLeg
		{
			OFFSET -1.745560 -36.997807 10.304700
			CHANNELS 3 Xrotation Yrotation Zrotation
			JOINT RightFoot
			{
				OFFSET 1.745558 -29.803308 -13.615400
				CHANNELS 3 Xrotation Yrotation Zrotation
				JOINT RightToeBase
				{
					OFFSET -1.181900 -18.539904 15.226099
					CHANNELS 3 Xrotation Yrotation Zrotation
					JOINT RightToe_End
					{
						OFFSET 0.863701 1.402801 16.534700
						CHANNELS 3 Xrotation Yrotation Zrotation
						End Site
						{
							OFFSET 0.000000 16.616566 0.000000
						}
					}
				}
			}
		}
	}
}
MOTION
Frames: 5
Frame Time: 0.033333
-3.373101 76.949615 1.612442 3.020225 -58.274470 6.385937 11.191133 0.164876 -2.607220 8.434584 0.027681 -5.592314 8.457050 0.027896 -5.591872 -21.555560 25.063434 12.062484 -0.294151 25.465747 -3.208894 -0.000000 0.000000 -0.000000 -6.221666 -11.503851 -4.023845 -23.061468 9.569427 -36.639771 0.046396 -43.171457 -0.010969 22.743522 -5.684735 15.978808 -1.064254 -7.954878 8.490110 2.373426 19.986085 -2.038333 0.808193 1.237751 2.631729 -0.000000 0.000001 -0.000001 -5.636042 7.709930 -13.878600 0.224395 0.276598 -46.588338 0.261256 0.249374 -46.286864 0.000000 0.000004 -0.000005 6.111753 3.150931 -16.210911 0.047057 0.322425 -30.125492 0.408810 0.818953 -42.140631 0.000001 0.000000 0.000003 8.495439 -0.329525 -0.915295 0.231543 0.661209 -29.901824 0.444106 0.213451 -44.357035 -0.000001 -0.000000 0.000001 13.340874 -1.006662 10.682289 -0.167585 0.303343 -31.105668 -0.143407 0.303619 -32.256238 0.000000 0.000003 0.000002 -5.488253 10.658274 2.466557 -41.473472 -26.756090 30.079269 24.954450 111.863663 -23.307397 -8.702487 12.422922 -9.801994 0.265009 10.061089 -10.888494 1.383796 -17.412854 3.016264 3.342337 -13.253713 -8.262774 -0.000003 -0.000001 0.000002 19.443599 11.174436 -13.340208 -0.118631 -0.322740 18.035591 -0.089924 -0.286556 23.256593 0.000000 -0.000001 -0.000001 4.320503 2.436928 -4.811722 0.349138 -0.461247 26.890301 0.467512 0.154063 39.044831 0.000002 0.000002 -0.000008 -7.005647 -10.695123 5.719841 0.111875 -0.089223 26.155842 0.451292 -0.473518 33.265074 0.000000 0.000002 -0.000005 -19.433527 -20.238185 5.987871 0.223796 -0.085797 36.844598 0.260761 -0.047518 36.471697 -0.000000 -0.000003 -0.000000 -34.176942 8.007140 29.899320 41.225683 -10.934546 -11.565627 -9.026855 -0.584858 -11.940295 -0.327613 1.238457 0.837243 0.000000 0.000001 -0.000000 -28.986694 -6.547005 -33.058577 48.773117 8.389432 -4.785535 -22.850031 -1.278688 24.382925 -0.322742 -0.997310 -0.837141 -0.000000 -0.000001 0.000000 
-3.170831 76.952553 1.902175 3.028299 -58.263904 6.386607 11.195996 0.171174 -2.611114 8.447382 0.033711 -5.581412 8.457045 0.030910 -5.580885 -21.574098 25.061364 12.062335 -0.250978 25.466254 -3.309007 0.000000 0.000000 0.000000 -6.219150 -11.504078 -4.011347 -22.437279 9.969190 -37.008250 0.046544 -44.868561 0.008102 23.003461 -4.809924 16.260049 -0.976088 -7.411620 8.692304 2.545878 20.485160 -1.845036 0.931968 1.750038 2.876498 -0.000000 0.000001 0.000000 -5.638455 7.713370 -14.459475 0.226612 0.278438 -47.170741 0.263959 0.250744 -46.869267 0.000002 -0.000000 -0.000000 6.107766 3.157606 -16.792894 0.047359 0.326394 -30.707837 0.414667 0.818594 -42.723014 0.000000 -0.000003 -0.000000 8.486122 -0.323776 -1.497630 0.234755 0.663115 -30.484299 0.447635 0.214519 -44.939411 0.000001 -0.000001 0.000004 13.342709 -1.008754 10.100006 -0.166952 0.303789 -31.688055 -0.141266 0.302986 -32.838668 -0.000000 0.000003 0.000001 -5.504118 10.663911 2.614195 -41.714868 -26.829514 29.830298 25.843307 111.124753 -24.273874 -9.251557 12.858972 -11.694273 0.254258 10.121633 -10.863779 1.171414 -16.832357 3.252126 3.251066 -12.642455 -7.990328 0.000000 -0.000001 -0.000001 19.430360 11.163607 -14.022574 -0.119253 -0.322135 17.351998 -0.092608 -0.286692 22.572952 -0.000003 -0.000002 0.000005 4.331551 2.443131 -5.495510 0.346235 -0.458693 26.206678 0.463963 0.155901 38.361276 0.000001 0.000000 -0.000008 -6.989591 -10.679060 5.037014 0.111993 -0.084673 25.472287 0.444320 -0.472691 32.581403 -0.000003 -0.000000 -0.000003 -19.408734 -20.216544 5.307120 0.221586 -0.083164 36.160965 0.257884 -0.045318 35.788009 -0.000001 0.000000 0.000000 -34.317278 7.984992 29.193260 41.363028 -12.472801 -11.703425 -9.338095 1.230809 -10.928325 -0.323406 1.238499 0.829590 -0.000000 0.000002 0.000000 -28.893927 -6.511742 -32.740102 48.610286 10.770881 -4.706080 -22.552762 -3.648206 23.180091 -0.323938 -0.997426 -0.839244 -0.000000 0.000000 0.000000 
-2.955130 76.946381 2.218122 3.049892 -58.223442 6.370005 11.219159 0.191487 -2.605912 8.482278 0.055025 -5.552529 8.456106 0.029286 -5.549180 -21.631103 25.052150 12.076897 -0.202659 25.478393 -3.419310 -0.000000 0.000000 -0.000000 -6.212103 -11.504674 -3.976112 -21.682161 10.215919 -37.179260 0.046844 -46.777872 0.064260 22.981109 -3.762800 16.366778 -0.878314 -6.798230 8.919323 2.738956 21.048777 -1.627909 1.069125 2.328610 3.151562 -0.000000 -0.000000 -0.000002 -5.636626 7.717514 -15.115885 0.229222 0.280511 -47.827952 0.267095 0.252241 -47.526447 0.000002 0.000000 -0.000006 6.105661 3.165239 -17.449813 0.047712 0.330876 -31.365000 0.417281 0.818076 -43.380249 0.000001 -0.000001 0.000003 8.475665 -0.317084 -2.154768 0.238490 0.665217 -31.141506 0.451646 0.215698 -45.596622 0.000001 -0.000000 0.000004 13.344713 -1.011060 9.442897 -0.166198 0.304170 -32.345245 -0.138896 0.302280 -33.495879 -0.000001 0.000001 0.000001 -5.574368 10.681605 3.057074 -41.796253 -26.712662 29.828047 26.820239 110.398321 -25.346499 -9.298462 13.425304 -13.629467 0.242398 10.188219 -10.836638 0.935604 -16.194309 3.513385 3.147612 -11.970219 -7.690273 -0.000001 0.000000 0.000003 19.417436 11.153773 -14.773622 -0.120006 -0.321391 16.599684 -0.095572 -0.286728 21.820691 -0.000002 -0.000003 -0.000001 4.343817 2.449784 -6.247987 0.344098 -0.455808 25.454419 0.461152 0.157966 37.608989 0.000004 -0.000001 -0.000007 -6.974160 -10.663485 4.285520 0.112177 -0.079765 24.720034 0.439144 -0.470264 31.829125 -0.000005 -0.000002 -0.000007 -19.385243 -20.196507 4.557544 0.219164 -0.080197 35.408715 0.255201 -0.042910 35.035834 0.000003 -0.000001 0.000004 -34.363023 7.805403 28.868911 41.771398 -12.262922 -11.739102 -9.634617 1.212270 -10.642332 -0.320783 1.238568 0.824828 0.000000 0.000002 0.000000 -28.558491 -6.142298 -33.017636 48.131974 10.658428 -4.472118 -22.228173 -3.801153 23.608993 -0.327158 -0.997404 -0.845192 -0.000000 0.000001 -0.000000 
-2.737074 76.941986 2.536338 3.085732 -58.161076 6.350385 11.250000 0.209171 -2.600914 8.532853 0.084438 -5.510063 8.454749 0.027046 -5.504175 -21.720539 25.038999 12.107790 -0.149236 25.502707 -3.538998 0.000000 -0.000000 0.000001 -6.201104 -11.516796 -3.921206 -20.844981 10.270435 -37.168810 0.032364 -48.665583 0.147623 22.678152 -2.679536 16.416040 -0.776180 -6.144707 9.159927 2.942995 21.649849 -1.397896 1.212240 2.945407 3.443319 -0.000001 0.000001 -0.000002 -5.637008 7.721746 -15.815086 0.232001 0.282686 -48.527845 0.270409 0.253864 -48.226395 0.000003 0.000000 -0.000002 6.102276 3.173429 -18.149421 0.048152 0.335567 -32.064999 0.420214 0.821424 -44.080238 0.000001 0.000002 0.000007 8.466801 -0.309966 -2.854653 0.242487 0.667421 -31.841440 0.455913 0.216911 -46.296566 0.000000 -0.000000 0.000004 13.346837 -1.013630 8.743092 -0.165415 0.304612 -33.045200 -0.136363 0.302228 -34.195865 -0.000001 0.000003 0.000004 -5.663826 10.705156 3.603009 -41.676134 -26.503422 30.074662 28.014593 109.689061 -26.647737 -8.956759 14.156662 -15.528582 0.231447 10.259996 -10.808694 0.681157 -15.513697 3.794430 3.033410 -11.252427 -7.369396 -0.000001 -0.000001 0.000002 19.405418 11.145510 -15.576168 -0.120694 -0.320687 15.795955 -0.098708 -0.286785 21.016914 0.000000 -0.000001 -0.000001 4.357023 2.456751 -7.052065 0.341882 -0.452690 24.650644 0.458368 0.160123 36.805314 0.000001 0.000001 -0.000006 -6.963547 -10.649009 3.481882 0.112554 -0.074451 23.916319 0.436087 -0.466042 31.025359 -0.000002 -0.000000 -0.000003 -19.364614 -20.179246 3.756195 0.216545 -0.077093 34.604931 0.252344 -0.040248 34.232092 0.000001 -0.000000 0.000006 -34.430003 7.597621 28.538139 42.185031 -12.034228 -11.758794 -9.922745 1.181784 -10.370300 -0.318237 1.238627 0.820193 -0.000000 -0.000000 -0.000000 -28.110822 -5.661354 -33.375327 47.575693 10.157647 -4.130354 -21.891357 -3.681013 24.250745 -0.330774 -0.997415 -0.851838 -0.000000 0.000001 -0.000000 
-2.518199 76.936996 2.855060 3.135699 -58.080862 6.329609 11.287441 0.233490 -2.599052 8.593240 0.120418 -5.459090 8.453233 0.024393 -5.452193 -21.835903 25.023539 12.155497 -0.091896 25.536472 -3.666267 -0.000000 0.000000 -0.000000 -6.179673 -11.533211 -3.850022 -19.980182 10.071460 -37.004568 0.010808 -50.320271 0.263083 22.118444 -1.680622 16.512729 -0.674497 -5.480963 9.402950 3.148380 22.260703 -1.165673 1.354482 3.572293 3.738306 0.000001 0.000001 -0.000002 -5.638105 7.726127 -16.525224 0.234848 0.284830 -49.238547 0.273826 0.255369 -48.937049 -0.000001 0.000004 0.000002 6.097327 3.181781 -18.859585 0.048650 0.340426 -32.775616 0.423294 0.824925 -44.790909 0.000000 -0.000001 0.000003 8.460391 -0.302533 -3.565224 0.246047 0.669586 -32.552166 0.460239 0.218085 -47.007172 -0.000001 -0.000001 0.000001 13.348949 -1.016219 8.032577 -0.164611 0.305061 -33.755792 -0.133762 0.302264 -34.906481 -0.000002 0.000001 0.000001 -5.766801 10.733366 4.219363 -41.580320 -26.232149 30.327604 29.463694 109.020290 -28.209708 -8.484802 14.876000 -17.445558 0.221888 10.335406 -10.780592 0.413111 -14.805238 4.089717 2.910346 -10.504442 -7.034365 -0.000002 0.000000 0.000002 19.395077 11.140758 -16.413327 -0.121417 -0.319927 14.957874 -0.100611 -0.286708 20.178853 -0.000000 -0.000003 -0.000001 4.370925 2.463766 -7.890457 0.339581 -0.449318 23.812565 0.455382 0.162548 35.967250 0.000004 0.000001 -0.000008 -6.954213 -10.639539 2.643325 0.110521 -0.068956 23.078210 0.433103 -0.461494 30.187312 0.000000 -0.000001 -0.000003 -19.348319 -20.165792 2.919986 0.213978 -0.073815 33.766939 0.249431 -0.037464 33.394035 0.000002 0.000001 0.000002 -34.518782 7.366969 28.204139 42.605378 -11.793338 -11.763677 -10.204621 1.143618 -10.111652 -0.315677 1.238711 0.815494 0.000000 0.000003 0.000000 -27.599550 -5.146133 -33.645126 47.024773 9.981350 -3.703370 -21.565332 -3.946597 24.643830 -0.334063 -0.997246 -0.857805 -0.000000 -0.000000 -0.000000 
